<svg width="13" height="16" viewBox="0 0 13 16" fill="none" xmlns="http://www.w3.org/2000/svg">
<g clip-path="url(#clip0_737_19965)">
<g clip-path="url(#clip1_737_19965)">
<path d="M6.99101 1.52575C6.60707 1.14181 5.98354 1.14181 5.5996 1.52575L0.685114 6.44024C0.30117 6.82418 0.30117 7.4477 0.685114 7.83165C1.06906 8.21559 1.69258 8.21559 2.07653 7.83165L5.31394 4.59116V14.0147C5.31394 14.5584 5.75318 14.9976 6.29684 14.9976C6.84051 14.9976 7.27974 14.5584 7.27974 14.0147V4.59116L10.5172 7.82858C10.9011 8.21252 11.5246 8.21252 11.9086 7.82858C12.2925 7.44463 12.2925 6.82111 11.9086 6.43716L6.99408 1.52268L6.99101 1.52575Z" fill="#059669"/>
</g>
</g>
<defs>
<clipPath id="clip0_737_19965">
<rect width="11.7948" height="15.7264" fill="white" transform="translate(0.399414 0.254395)"/>
</clipPath>
<clipPath id="clip1_737_19965">
<path d="M0.399414 0.254395H12.1942V15.9807H0.399414V0.254395Z" fill="white"/>
</clipPath>
</defs>
</svg>
