<svg width="24" height="24" viewBox="0 0 24 24" fill="none" xmlns="http://www.w3.org/2000/svg">
<g clip-path="url(#clip0_737_19974)">
<path d="M12.0625 23.0282C15.0417 23.0282 17.8989 21.8447 20.0055 19.7381C22.1121 17.6315 23.2956 14.7743 23.2956 11.7951C23.2956 8.81591 22.1121 5.95873 20.0055 3.85211C17.8989 1.7455 15.0417 0.562012 12.0625 0.562012C9.08331 0.562012 6.22612 1.7455 4.11951 3.85211C2.01289 5.95873 0.829407 8.81591 0.829407 11.7951C0.829407 14.7743 2.01289 17.6315 4.11951 19.7381C6.22612 21.8447 9.08331 23.0282 12.0625 23.0282ZM17.0209 9.73279L11.4043 15.3493C10.9919 15.7618 10.3249 15.7618 9.91682 15.3493L7.10854 12.5411C6.69607 12.1286 6.69607 11.4616 7.10854 11.0536C7.521 10.6455 8.18797 10.6411 8.59605 11.0536L10.6584 13.1159L15.529 8.24089C15.9414 7.82843 16.6084 7.82843 17.0165 8.24089C17.4246 8.65336 17.429 9.32033 17.0165 9.7284L17.0209 9.73279Z" fill="#059669"/>
</g>
<defs>
<clipPath id="clip0_737_19974">
<path d="M0.829407 0.562012H23.2956V23.0282H0.829407V0.562012Z" fill="white"/>
</clipPath>
</defs>
</svg>
