<svg width="24" height="24" viewBox="0 0 24 24" fill="none" xmlns="http://www.w3.org/2000/svg">
<g clip-path="url(#clip0_737_19994)">
<path d="M11.8226 0.562012C14.8018 0.562012 17.659 1.7455 19.7656 3.85211C21.8722 5.95873 23.0557 8.81591 23.0557 11.7951C23.0557 14.7743 21.8722 17.6315 19.7656 19.7381C17.659 21.8447 14.8018 23.0282 11.8226 23.0282C8.84338 23.0282 5.9862 21.8447 3.87958 19.7381C1.77296 17.6315 0.589478 14.7743 0.589478 11.7951C0.589478 8.81591 1.77296 5.95873 3.87958 3.85211C5.9862 1.7455 8.84338 0.562012 11.8226 0.562012ZM10.7695 5.82753V11.7951C10.7695 12.1462 10.945 12.4753 11.239 12.6727L15.4514 15.481C15.9341 15.8057 16.5879 15.6741 16.9126 15.187C17.2373 14.6999 17.1057 14.0505 16.6186 13.7258L12.8757 11.2335V5.82753C12.8757 5.24394 12.4062 4.77443 11.8226 4.77443C11.239 4.77443 10.7695 5.24394 10.7695 5.82753Z" fill="#D97706"/>
</g>
<defs>
<clipPath id="clip0_737_19994">
<path d="M0.589478 0.562012H23.0557V23.0282H0.589478V0.562012Z" fill="white"/>
</clipPath>
</defs>
</svg>
