<svg width="24" height="24" viewBox="0 0 20 24" fill="none" xmlns="http://www.w3.org/2000/svg">
<g clip-path="url(#clip0_737_19954)">
<path d="M5.6858 0.562012C6.46246 0.562012 7.08994 1.18949 7.08994 1.96615V3.37029H12.7065V1.96615C12.7065 1.18949 13.334 0.562012 14.1106 0.562012C14.8873 0.562012 15.5148 1.18949 15.5148 1.96615V3.37029H17.621C18.7838 3.37029 19.7272 4.31369 19.7272 5.4765V7.5827H0.0692444V5.4765C0.0692444 4.31369 1.01265 3.37029 2.17545 3.37029H4.28166V1.96615C4.28166 1.18949 4.90913 0.562012 5.6858 0.562012ZM0.0692444 8.98684H19.7272V20.922C19.7272 22.0848 18.7838 23.0282 17.621 23.0282H2.17545C1.01265 23.0282 0.0692444 22.0848 0.0692444 20.922V8.98684ZM14.5055 13.9452C14.918 13.5327 14.918 12.8658 14.5055 12.4577C14.0931 12.0496 13.4261 12.0452 13.018 12.4577L8.8495 16.6262L6.78717 14.5639C6.3747 14.1514 5.70774 14.1514 5.29966 14.5639C4.89158 14.9764 4.88719 15.6433 5.29966 16.0514L8.10794 18.8597C8.5204 19.2722 9.18737 19.2722 9.59545 18.8597L14.5055 13.9452Z" fill="#EA580C"/>
</g>
<defs>
<clipPath id="clip0_737_19954">
<path d="M0.0692444 0.562012H19.7272V23.0282H0.0692444V0.562012Z" fill="white"/>
</clipPath>
</defs>
</svg>
