<svg width="20" height="24" viewBox="0 0 20 24" fill="none" xmlns="http://www.w3.org/2000/svg">
<g clip-path="url(#clip0_737_20014)">
<path d="M18.6034 0.562012C17.9013 0.562012 12.9869 1.96615 12.9869 8.28477V13.1993C12.9869 14.7482 14.2462 16.0075 15.7951 16.0075H17.1993V21.6241C17.1993 22.4008 17.8267 23.0282 18.6034 23.0282C19.3801 23.0282 20.0075 22.4008 20.0075 21.6241V16.0075V11.0931V1.96615C20.0075 1.18949 19.3801 0.562012 18.6034 0.562012ZM3.15789 1.26408C3.15789 0.90427 2.89022 0.605891 2.53041 0.5664C2.1706 0.526908 1.85028 0.763857 1.7713 1.1105L0.441756 7.09126C0.380325 7.3677 0.349609 7.64852 0.349609 7.92935C0.349609 9.94341 1.88977 11.5977 3.85996 11.7776V21.6241C3.85996 22.4008 4.48743 23.0282 5.26409 23.0282C6.04076 23.0282 6.66823 22.4008 6.66823 21.6241V11.7776C8.63842 11.5977 10.1786 9.94341 10.1786 7.92935C10.1786 7.64852 10.1479 7.3677 10.0864 7.09126L8.75689 1.1105C8.67791 0.759469 8.34881 0.526908 7.99339 0.5664C7.63797 0.605891 7.3703 0.90427 7.3703 1.26408V7.15269C7.3703 7.38964 7.17723 7.5827 6.94028 7.5827C6.7165 7.5827 6.53221 7.41158 6.51027 7.18779L5.96178 1.20265C5.93106 0.838452 5.62829 0.562012 5.26409 0.562012C4.8999 0.562012 4.59713 0.838452 4.56641 1.20265L4.02231 7.18779C4.00037 7.41158 3.81608 7.5827 3.59229 7.5827C3.35534 7.5827 3.16227 7.38964 3.16227 7.15269V1.26408H3.15789ZM5.27726 7.93374H5.26409H5.25093L5.26409 7.90302L5.27726 7.93374Z" fill="#2563EB"/>
</g>
<defs>
<clipPath id="clip0_737_20014">
<path d="M0.349609 0.562012H20.0075V23.0282H0.349609V0.562012Z" fill="white"/>
</clipPath>
</defs>
</svg>
