<svg width="40" height="40" viewBox="0 0 40 40" fill="none" xmlns="http://www.w3.org/2000/svg">
<rect x="1.36145" y="1.31866" width="38" height="38" rx="3.5" fill="white" stroke="#3D85F7"/>
<mask id="mask0_54_22656" style="mask-type:luminance" maskUnits="userSpaceOnUse" x="11" y="9" width="18" height="22">
<path d="M24.1479 12.2084H26.4166C26.6597 12.2084 26.8929 12.305 27.0648 12.4769C27.2367 12.6488 27.3333 12.8819 27.3333 13.1251V28.2501C27.3333 28.4932 27.2367 28.7263 27.0648 28.8982C26.8929 29.0701 26.6597 29.1667 26.4166 29.1667H13.5833C13.3402 29.1667 13.107 29.0701 12.9351 28.8982C12.7632 28.7263 12.6666 28.4932 12.6666 28.2501V13.1251C12.6666 12.8819 12.7632 12.6488 12.9351 12.4769C13.107 12.305 13.3402 12.2084 13.5833 12.2084H16.7916V13.5834H23.2083V12.2084H24.1479Z" fill="#555555" stroke="white" stroke-width="1.83333" stroke-linejoin="round"/>
<path d="M21.375 17.7084L17.7083 21.3755H22.2935L18.625 25.0422M16.7916 10.8334H23.2083V13.5834H16.7916V10.8334Z" stroke="white" stroke-width="1.83333" stroke-linecap="round" stroke-linejoin="round"/>
</mask>
<g mask="url(#mask0_54_22656)">
<path d="M9 9.00006H31V31.0001H9V9.00006Z" fill="#3D85F7"/>
</g>
</svg>
