<svg width="40" height="40" viewBox="0 0 40 40" fill="none" xmlns="http://www.w3.org/2000/svg">
<rect x="0.930664" y="1.31866" width="38" height="38" rx="3.5" fill="white" stroke="#EEC141"/>
<path d="M18.9338 11.3395H21.9277C22.9287 11.3395 23.7225 11.3395 24.3614 11.3917C25.0159 11.4449 25.5687 11.5567 26.0747 11.8134C26.8938 12.2313 27.5597 12.8978 27.9767 13.7173C28.2343 14.2215 28.3462 14.7752 28.3993 15.4297C28.4516 16.0686 28.4516 16.8624 28.4516 17.8634V21.7739C28.4516 22.7749 28.4516 23.5687 28.3993 24.2077C28.3462 24.8622 28.2343 25.4149 27.9777 25.9209C27.56 26.7399 26.8939 27.4058 26.0747 27.823C25.5687 28.0806 25.0159 28.1924 24.3614 28.2456C23.7225 28.2978 22.9287 28.2978 21.9277 28.2978H18.9338C17.9328 28.2978 17.139 28.2978 16.5001 28.2456C15.8456 28.1924 15.2928 28.0806 14.7877 27.8239C13.9684 27.4064 13.3022 26.7403 12.8847 25.9209C12.6272 25.4149 12.5153 24.8622 12.4622 24.2077C12.4099 23.5687 12.4099 22.7749 12.4099 21.7739V17.8634C12.4099 16.8624 12.4099 16.0686 12.4622 15.4297C12.5153 14.7752 12.6272 14.2224 12.8838 13.7173C13.3015 12.8978 13.968 12.2316 14.7877 11.8143C15.2919 11.5567 15.8456 11.4449 16.5001 11.3917C17.139 11.3395 17.9328 11.3395 18.9338 11.3395ZM16.6119 12.7622C16.0436 12.808 15.6907 12.8969 15.4111 13.039C14.8507 13.3246 14.395 13.7802 14.1094 14.3407C13.9673 14.6202 13.8793 14.9732 13.8326 15.5415C13.7858 16.119 13.7849 16.856 13.7849 17.8937V21.7437C13.7849 22.7822 13.7849 23.5192 13.8326 24.0958C13.8784 24.6642 13.9673 25.0171 14.1094 25.2967C14.395 25.8571 14.8507 26.3127 15.4111 26.5983C15.6907 26.7404 16.0436 26.8284 16.6119 26.8752C17.1894 26.9219 17.9264 26.9228 18.9641 26.9228H21.8974C22.936 26.9228 23.673 26.9228 24.2496 26.8752C24.8179 26.8293 25.1708 26.7404 25.4504 26.5983C26.0108 26.3127 26.4665 25.8571 26.7521 25.2967C26.8942 25.0171 26.9822 24.6642 27.0289 24.0958C27.0757 23.5183 27.0766 22.7813 27.0766 21.7437V17.8937C27.0766 16.856 27.0766 16.1181 27.0289 15.5415C26.9831 14.9732 26.8942 14.6202 26.7521 14.3407C26.4665 13.7802 26.0108 13.3246 25.4504 13.039C25.1708 12.8969 24.8179 12.8089 24.2496 12.7622C23.6721 12.7154 22.9351 12.7145 21.8974 12.7145H18.9641C17.9264 12.7145 17.1885 12.7145 16.6119 12.7622Z" fill="#EEC141"/>
<path opacity="0.5" d="M15.4111 13.039C15.6907 12.8969 16.0436 12.8089 16.6119 12.7622C17.1161 12.7209 17.744 12.7154 18.5882 12.7145H22.2998C23.1303 12.7154 23.75 12.7209 24.2496 12.7622C24.8179 12.808 25.1708 12.8969 25.4504 13.039C26.0108 13.3246 26.4665 13.7802 26.7521 14.3407C26.8942 14.6202 26.9822 14.9732 27.0289 15.5415C27.0702 16.0484 27.0747 16.6782 27.0766 17.527H13.7849C13.7849 16.6782 13.7913 16.0475 13.8326 15.5415C13.8784 14.9732 13.9673 14.6202 14.1094 14.3407C14.395 13.7802 14.8507 13.3246 15.4111 13.039ZM17.2224 15.0062C17.2224 15.2493 17.319 15.4824 17.4909 15.6543C17.6628 15.8262 17.896 15.9228 18.1391 15.9228H22.7224C22.9655 15.9228 23.1987 15.8262 23.3706 15.6543C23.5425 15.4824 23.6391 15.2493 23.6391 15.0062C23.6391 14.763 23.5425 14.5299 23.3706 14.358C23.1987 14.1861 22.9655 14.0895 22.7224 14.0895H18.1391C17.896 14.0895 17.6628 14.1861 17.4909 14.358C17.319 14.5299 17.2224 14.763 17.2224 15.0062ZM16.9932 19.3603C16.6894 19.3603 16.3979 19.481 16.183 19.6959C15.9681 19.9108 15.8474 20.2023 15.8474 20.5062C15.8474 20.8101 15.9681 21.1015 16.183 21.3164C16.3979 21.5313 16.6894 21.652 16.9932 21.652C17.2971 21.652 17.5886 21.5313 17.8035 21.3164C18.0184 21.1015 18.1391 20.8101 18.1391 20.5062C18.1391 20.2023 18.0184 19.9108 17.8035 19.6959C17.5886 19.481 17.2971 19.3603 16.9932 19.3603ZM22.7224 20.5062C22.7224 20.2023 22.8431 19.9108 23.058 19.6959C23.2729 19.481 23.5644 19.3603 23.8682 19.3603C24.1721 19.3603 24.4636 19.481 24.6785 19.6959C24.8934 19.9108 25.0141 20.2023 25.0141 20.5062C25.0141 20.8101 24.8934 21.1015 24.6785 21.3164C24.4636 21.5313 24.1721 21.652 23.8682 21.652C23.5644 21.652 23.2729 21.5313 23.058 21.3164C22.8431 21.1015 22.7224 20.8101 22.7224 20.5062ZM19.2849 20.5062C19.2849 20.2023 19.4056 19.9108 19.6205 19.6959C19.8354 19.481 20.1269 19.3603 20.4307 19.3603C20.7346 19.3603 21.0261 19.481 21.241 19.6959C21.4559 19.9108 21.5766 20.2023 21.5766 20.5062C21.5766 20.8101 21.4559 21.1015 21.241 21.3164C21.0261 21.5313 20.7346 21.652 20.4307 21.652C20.1269 21.652 19.8354 21.5313 19.6205 21.3164C19.4056 21.1015 19.2849 20.8101 19.2849 20.5062ZM15.8474 24.1728C15.8474 23.8689 15.9681 23.5775 16.183 23.3626C16.3979 23.1477 16.6894 23.027 16.9932 23.027C17.2971 23.027 17.5886 23.1477 17.8035 23.3626C18.0184 23.5775 18.1391 23.8689 18.1391 24.1728C18.1391 24.4767 18.0184 24.7682 17.8035 24.9831C17.5886 25.1979 17.2971 25.3187 16.9932 25.3187C16.6894 25.3187 16.3979 25.1979 16.183 24.9831C15.9681 24.7682 15.8474 24.4767 15.8474 24.1728ZM19.2849 24.1728C19.2849 23.8689 19.4056 23.5775 19.6205 23.3626C19.8354 23.1477 20.1269 23.027 20.4307 23.027C20.7346 23.027 21.0261 23.1477 21.241 23.3626C21.4559 23.5775 21.5766 23.8689 21.5766 24.1728C21.5766 24.4767 21.4559 24.7682 21.241 24.9831C21.0261 25.1979 20.7346 25.3187 20.4307 25.3187C20.1269 25.3187 19.8354 25.1979 19.6205 24.9831C19.4056 24.7682 19.2849 24.4767 19.2849 24.1728Z" fill="#EEC141"/>
</svg>

