<svg width="19" height="18" viewBox="0 0 19 18" fill="none" xmlns="http://www.w3.org/2000/svg">
  <line x1="0.5" y1="2" x2="0.5" y2="16" stroke="#9BA2B5"/>

  <path d="M16 9.56249C16.1492 9.56249 16.2923 9.50323 16.3977 9.39774C16.5032 9.29225 16.5625 9.14918 16.5625 8.99999C16.5625 8.85081 16.5032 8.70774 16.3977 8.60225C16.2923 8.49676 16.1492 8.43749 16 8.43749L9.0625 8.43749L9.0625 4.49999C9.0624 4.38881 9.02936 4.28016 8.96754 4.18774C8.90573 4.09533 8.81792 4.02331 8.71519 3.98078C8.61247 3.93824 8.49945 3.92711 8.3904 3.94877C8.28135 3.97043 8.18117 4.02393 8.1025 4.10249L3.6025 8.60249C3.49716 8.70796 3.438 8.85093 3.438 8.99999C3.438 9.14906 3.49716 9.29202 3.6025 9.39749L8.1025 13.8975C8.18117 13.9761 8.28135 14.0296 8.3904 14.0512C8.49945 14.0729 8.61247 14.0617 8.71519 14.0192C8.81792 13.9767 8.90573 13.9047 8.96754 13.8122C9.02936 13.7198 9.0624 13.6112 9.0625 13.5L9.0625 9.56249L16 9.56249Z" fill="#9BA2B5"/>
</svg>
