<svg width="13" height="13" viewBox="0 0 13 13" fill="none" xmlns="http://www.w3.org/2000/svg">
<path d="M7.5646 1.08568C7.5646 0.542015 7.12537 0.102783 6.5817 0.102783C6.03804 0.102783 5.5988 0.542015 5.5988 1.08568V5.50872H1.17577C0.632103 5.50872 0.192871 5.94795 0.192871 6.49161C0.192871 7.03528 0.632103 7.47451 1.17577 7.47451H5.5988V11.8975C5.5988 12.4412 6.03804 12.8804 6.5817 12.8804C7.12537 12.8804 7.5646 12.4412 7.5646 11.8975V7.47451H11.9876C12.5313 7.47451 12.9705 7.03528 12.9705 6.49161C12.9705 5.94795 12.5313 5.50872 11.9876 5.50872H7.5646V1.08568Z" fill="white"/>
</svg>
